<?xml version="1.0" standalone="no"?>
<!DOCTYPE svg PUBLIC "-//W3C//DTD SVG 20010904//EN"
 "http://www.w3.org/TR/2001/REC-SVG-20010904/DTD/svg10.dtd">
<svg version="1.0" xmlns="http://www.w3.org/2000/svg"
 width="328.000000pt" height="328.000000pt" viewBox="0 0 328.000000 328.000000"
 preserveAspectRatio="xMidYMid meet">
<metadata>
Created by potrace 1.11, written by Peter Selinger 2001-2013
</metadata>
<g transform="translate(0.000000,328.000000) scale(0.100000,-0.100000)"
fill="#000000" stroke="none">
<path d="M1602 2560 c-156 -33 -302 -184 -375 -385 -59 -165 -91 -426 -79
-653 l5 -104 103 103 104 104 0 57 c0 95 21 257 45 355 58 228 166 348 315
347 78 0 124 -20 180 -76 40 -40 110 -166 110 -198 0 -30 -591 -784 -701 -896
l-100 -101 27 -67 c53 -134 146 -253 240 -306 139 -80 349 -80 489 0 136 78
248 267 295 499 23 116 40 360 31 464 l-6 68 -101 -103 -102 -103 -11 -133
c-31 -354 -143 -550 -325 -569 -119 -12 -216 49 -280 179 -30 58 -34 73 -23
87 6 9 146 190 309 402 194 251 330 416 392 478 l94 94 -25 71 c-61 170 -159
289 -289 352 -69 33 -85 37 -177 40 -56 2 -121 -1 -145 -6z"/>
</g>
</svg>
